<svg version="1.1" id="Layer_1" xmlns="http://www.w3.org/2000/svg" xmlns:xlink="http://www.w3.org/1999/xlink" x="0px" y="0px"
	 width="100%" viewBox="0 0 1280 416" enable-background="new 0 0 1280 416" xml:space="preserve">
<path fill="#FEFFFF" opacity="1.000000" stroke="none" 
	d="
M902.000000,417.000000 
	C601.333374,417.000000 301.166748,417.000000 1.000081,417.000000 
	C1.000054,278.333374 1.000054,139.666779 1.000027,1.000118 
	C427.666534,1.000079 854.333069,1.000079 1280.999756,1.000039 
	C1280.999756,139.666550 1280.999756,278.333099 1280.999878,416.999817 
	C1154.833374,417.000000 1028.666626,417.000000 902.000000,417.000000 
M321.243896,134.258896 
	C320.378479,132.915283 319.720032,131.365356 318.616974,130.258621 
	C297.429047,109.000710 276.198151,87.785568 254.933731,66.604156 
	C253.819092,65.493889 252.328232,64.761330 250.327866,63.403458 
	C249.832291,63.349075 249.336716,63.247101 248.841141,63.247074 
	C194.027878,63.243999 139.214569,63.208973 84.401413,63.286079 
	C73.463669,63.301464 66.908981,70.226761 66.904518,81.290962 
	C66.890747,115.445152 66.900810,149.599350 66.900558,183.753540 
	C66.900185,234.901535 66.928902,286.049591 66.850258,337.197449 
	C66.842636,342.154022 68.165962,346.366547 71.667671,349.855865 
	C75.742043,353.915863 80.863014,354.836548 86.356384,354.834808 
	C157.663666,354.812134 228.970947,354.818817 300.278229,354.817108 
	C315.601837,354.816742 321.738190,348.684753 321.738922,333.288666 
	C321.742035,268.978821 321.734039,204.668991 321.697174,140.359161 
	C321.696167,138.572021 321.323334,136.785110 321.243896,134.258896 
M364.278442,261.500000 
	C364.278442,283.884979 364.278442,306.269958 364.278442,328.057281 
	C388.794891,328.057281 412.447021,328.883667 436.011475,327.801331 
	C455.607147,326.901276 467.662323,313.785980 467.865051,294.206818 
	C468.299469,252.249756 468.230560,210.282410 467.738525,168.326630 
	C467.668915,162.391953 465.106354,155.851898 461.895294,150.719681 
	C455.027679,139.743240 443.467133,137.133713 431.421570,137.002548 
	C410.442261,136.774124 389.458832,136.919601 368.477142,136.937836 
	C367.214722,136.938934 365.952515,137.199356 364.278870,137.384659 
	C364.278870,178.635818 364.278870,219.567917 364.278442,261.500000 
M945.485535,313.960175 
	C948.115601,308.265594 951.566650,302.795807 953.200439,296.828461 
	C956.351746,285.318939 955.929626,273.461243 954.573547,261.635986 
	C952.923645,247.248703 945.888245,236.576553 932.826050,230.329422 
	C923.079651,225.668076 913.144653,221.359238 903.113159,217.344315 
	C882.347046,209.033005 879.183838,191.588303 885.316040,171.823883 
	C887.534729,164.672897 893.551453,161.847305 900.938110,161.641373 
	C908.570862,161.428558 915.976501,162.587418 918.726990,170.564224 
	C920.947876,177.005280 921.359985,184.117630 922.166626,190.980133 
	C922.620605,194.842850 922.248352,198.802673 922.248352,202.599640 
	C933.004883,202.599640 942.907166,202.599640 953.047180,202.599640 
	C953.047180,193.365448 953.245361,184.541595 953.004761,175.729736 
	C952.541077,158.748001 942.620178,145.398041 926.505188,140.123520 
	C910.887695,135.011871 895.012085,135.422089 879.244141,139.181412 
	C864.659241,142.658661 855.815674,152.249451 853.208618,166.903214 
	C851.761780,175.035614 851.165344,183.398331 851.035522,191.670578 
	C850.699097,213.115448 859.688232,229.290833 879.373413,238.745163 
	C887.766663,242.776245 896.406006,246.291687 904.882751,250.152954 
	C912.619690,253.677231 919.656982,258.780579 920.688904,267.502869 
	C921.825745,277.111908 921.698425,287.097412 920.433167,296.696320 
	C919.294312,305.335358 911.712158,310.372437 902.797302,310.812866 
	C893.824890,311.256073 887.426086,307.353424 884.697510,298.326843 
	C882.946350,292.533691 882.492065,286.279175 882.024170,280.187866 
	C881.596863,274.624695 881.933594,269.002869 881.933594,263.354004 
	C870.879639,263.354004 860.621277,263.354004 849.823059,263.354004 
	C849.821899,277.074554 849.009033,290.509155 853.377808,303.574005 
	C857.585510,316.157043 865.727173,324.561127 878.670105,328.247650 
	C891.432373,331.882690 904.351501,332.100372 917.248779,329.819000 
	C928.111267,327.897552 937.983337,323.616333 945.485535,313.960175 
M801.059509,328.855377 
	C809.163940,328.855377 817.268372,328.855377 825.576172,328.855377 
	C825.576172,275.036041 825.576172,221.817368 825.576172,168.474487 
	C815.235168,168.474487 805.218262,168.474487 794.920227,168.474487 
	C794.920227,170.913223 794.920227,172.902863 794.920166,174.892502 
	C794.919373,214.381668 794.980591,253.871109 794.798523,293.359436 
	C794.784180,296.467957 793.783264,300.061554 792.024231,302.579987 
	C786.892944,309.926636 779.035400,309.988739 771.263489,308.617188 
	C763.876160,307.313568 761.172485,301.631287 760.260193,294.894592 
	C759.926453,292.430481 759.920654,289.909668 759.919556,287.414673 
	C759.903137,249.591721 759.912415,211.768768 759.915649,173.945816 
	C759.915833,172.165680 759.915710,170.385529 759.915710,168.320007 
	C749.404236,168.320007 739.512695,168.320007 729.337830,168.320007 
	C729.229248,169.884201 729.061707,171.174515 729.061462,172.464859 
	C729.054077,212.287247 729.023743,252.109741 729.122498,291.931915 
	C729.133972,296.575470 729.573364,301.266571 730.329590,305.850677 
	C732.700500,320.222443 740.331421,327.913422 754.752991,330.316376 
	C759.151428,331.049225 763.705994,331.096130 768.184631,331.047333 
	C779.732849,330.921600 788.583130,325.796112 794.816162,316.088623 
	C795.450684,315.100403 796.249573,314.217712 797.120728,313.094513 
	C798.226929,318.642822 799.217773,323.612396 801.059509,328.855377 
M576.232544,322.779755 
	C585.087769,314.930084 588.580750,304.426086 588.752258,293.262695 
	C589.230896,262.119324 589.349548,230.956863 588.792358,199.816589 
	C588.490662,182.955338 579.773621,172.500870 563.574829,167.930359 
	C547.162476,163.299591 530.612549,163.651489 514.437500,169.269287 
	C505.860352,172.248215 499.383209,178.093887 496.469147,186.820099 
	C494.647430,192.275406 493.149506,198.135101 493.085388,203.831085 
	C492.764771,232.314941 492.931213,260.804779 493.031586,289.292175 
	C493.043243,292.598297 493.549103,295.928253 494.093811,299.202606 
	C496.740906,315.115631 504.723206,326.315002 521.434753,329.557739 
	C534.657349,332.123474 547.976013,332.292206 561.105530,329.454376 
	C566.164185,328.360992 570.804565,325.332764 576.232544,322.779755 
M1179.011353,311.689087 
	C1163.810059,320.252869 1150.199951,313.230988 1149.729858,296.207275 
	C1149.320557,281.388397 1149.619995,266.549774 1149.633667,251.719894 
	C1149.634399,250.938446 1149.891357,250.157211 1150.120728,248.856110 
	C1171.724365,248.856110 1193.133179,248.856110 1214.418091,248.856110 
	C1214.774536,247.858078 1215.078125,247.405106 1215.077271,246.952652 
	C1215.049438,230.624542 1215.534302,214.271820 1214.791382,197.975204 
	C1214.019531,181.040207 1206.502197,172.021667 1190.011963,167.766403 
	C1172.930664,163.358612 1155.706543,163.617615 1138.825684,169.238052 
	C1128.414795,172.704346 1122.457397,180.322281 1120.199951,190.863556 
	C1119.472412,194.260803 1119.043213,197.790237 1119.029663,201.261353 
	C1118.920776,229.253616 1118.822021,257.247253 1119.018066,285.238373 
	C1119.063110,291.687225 1119.667236,298.257294 1121.045776,304.545349 
	C1123.829956,317.243774 1131.190308,325.945831 1144.439331,328.998016 
	C1158.293335,332.189545 1172.210449,332.023376 1186.107910,329.936005 
	C1195.324097,328.551819 1203.529175,324.635254 1208.048828,315.979309 
	C1210.548340,311.192200 1212.656494,305.854309 1213.367676,300.553589 
	C1214.742798,290.304779 1215.004150,279.906494 1215.731812,269.502350 
	C1204.400635,269.502350 1194.511475,269.502350 1184.074463,269.502350 
	C1184.074463,279.368805 1184.532471,288.871094 1183.871460,298.294891 
	C1183.564697,302.667236 1181.081055,306.886871 1179.011353,311.689087 
M656.987305,183.639877 
	C669.492920,182.796341 674.879089,186.668945 676.176208,197.754578 
	C676.677307,202.037582 676.763123,206.379593 676.846924,210.698441 
	C676.955688,216.306641 676.873474,221.918533 676.873474,227.809143 
	C687.383972,227.809143 697.249573,227.809143 708.136169,227.809143 
	C707.540039,215.997772 707.571533,204.513199 706.232117,193.190765 
	C704.609253,179.471222 696.139526,171.257034 682.800842,167.841873 
	C667.829407,164.008667 652.814453,163.978638 637.819763,167.318237 
	C623.600525,170.485092 614.438293,178.906830 612.226562,193.753387 
	C611.518188,198.508408 611.063904,203.347473 611.041199,208.150681 
	C610.923950,232.969650 610.825684,257.791107 611.081299,282.607971 
	C611.156311,289.887573 611.792786,297.282990 613.264160,304.399536 
	C615.795959,316.645081 622.511353,325.574951 635.429932,328.732635 
	C650.075684,332.312500 664.809692,332.103485 679.530640,329.770264 
	C692.211731,327.760345 700.719788,320.363739 704.296936,307.996796 
	C708.228821,294.403015 707.760681,280.418365 707.440125,266.200867 
	C697.155396,266.200867 687.280334,266.200867 676.872070,266.200867 
	C676.872070,268.661865 676.921509,270.786713 676.863464,272.908600 
	C676.618042,281.888550 676.907593,290.937836 675.808838,299.814117 
	C675.337952,303.618042 672.847046,308.558044 669.740601,310.410278 
	C656.123901,318.529266 642.304932,310.397217 641.955017,294.678436 
	C641.929077,293.512939 641.941101,292.346527 641.940796,291.180542 
	C641.933411,262.696381 641.920715,234.212250 641.929626,205.728104 
	C641.930481,203.065140 641.853699,200.375549 642.181030,197.744095 
	C643.326477,188.535934 647.173523,184.763092 656.987305,183.639877 
M1105.172607,182.323456 
	C1105.172607,177.720016 1105.172607,173.116577 1105.172607,167.854919 
	C1094.109497,167.854919 1083.735474,167.854919 1072.860962,167.854919 
	C1072.860962,157.603806 1072.860962,148.027939 1072.860962,138.053528 
	C1065.540161,138.053528 1058.736450,137.927475 1051.947632,138.189987 
	C1050.934570,138.229141 1049.337524,139.974136 1049.124756,141.134323 
	C1047.865967,147.999481 1046.709717,154.901001 1045.974854,161.838577 
	C1045.482422,166.487976 1043.906128,169.175842 1038.741455,169.093750 
	C1035.953857,169.049438 1033.044922,169.530594 1030.403809,170.412567 
	C1029.113770,170.843369 1027.410156,172.763504 1027.450195,173.957458 
	C1027.592285,178.209778 1028.323608,182.454880 1029.126709,186.646225 
	C1029.184326,186.946686 1031.617432,186.829742 1032.946655,186.841049 
	C1035.877808,186.865952 1038.809204,186.848785 1042.246094,186.848785 
	C1042.246094,189.894241 1042.245972,192.190842 1042.246094,194.487442 
	C1042.247314,228.636429 1042.200195,262.785492 1042.271851,296.934326 
	C1042.304443,312.462341 1049.606689,323.377045 1062.578979,327.421295 
	C1076.735596,331.834778 1090.772827,330.053131 1105.164673,326.478790 
	C1105.164673,321.459412 1105.180298,316.654510 1105.153320,311.849854 
	C1105.146973,310.727081 1104.995850,309.605103 1104.874512,307.991486 
	C1102.136719,308.132874 1099.677368,308.090149 1097.266479,308.411346 
	C1078.785156,310.873749 1073.104614,305.989105 1073.088013,287.383545 
	C1073.059814,255.733276 1073.078369,224.082977 1073.077393,192.432693 
	C1073.077393,190.677734 1073.077393,188.922760 1073.077393,186.835709 
	C1082.870483,186.835709 1091.854858,186.792496 1100.838135,186.862885 
	C1103.422852,186.883133 1105.633911,186.780075 1105.172607,182.323456 
M978.408936,289.499969 
	C978.408936,302.549286 978.408936,315.598602 978.408936,328.589783 
	C989.388977,328.589783 999.300110,328.589783 1009.401245,328.589783 
	C1009.401245,275.030182 1009.401245,221.812958 1009.401245,168.358826 
	C999.027527,168.358826 988.979919,168.358826 978.409607,168.358826 
	C978.409607,208.625076 978.409607,248.562500 978.408936,289.499969 
M978.829895,132.230682 
	C979.793701,135.961456 979.894287,140.258179 981.894714,143.309326 
	C986.567993,150.437592 997.878662,151.333664 1004.528992,145.795898 
	C1011.033142,140.379883 1011.738464,131.361038 1005.944458,125.012367 
	C1001.791992,120.462425 996.330505,118.885208 990.486206,120.291985 
	C984.676270,121.690498 980.426758,125.310089 978.829895,132.230682 
z"/>
<path fill="#4F92D9" opacity="1.000000" stroke="none" 
	d="
M321.123871,134.998093 
	C321.323334,136.785110 321.696167,138.572021 321.697174,140.359161 
	C321.734039,204.668991 321.742035,268.978821 321.738922,333.288666 
	C321.738190,348.684753 315.601837,354.816742 300.278229,354.817108 
	C228.970947,354.818817 157.663666,354.812134 86.356384,354.834808 
	C80.863014,354.836548 75.742043,353.915863 71.667671,349.855865 
	C68.165962,346.366547 66.842636,342.154022 66.850258,337.197449 
	C66.928902,286.049591 66.900185,234.901535 66.900558,183.753540 
	C66.900810,149.599350 66.890747,115.445152 66.904518,81.290962 
	C66.908981,70.226761 73.463669,63.301464 84.401413,63.286079 
	C139.214569,63.208973 194.027878,63.243999 248.841141,63.247074 
	C249.336716,63.247101 249.832291,63.349075 250.680573,64.052673 
	C251.343567,70.898483 251.844131,77.092659 251.922821,83.292191 
	C252.068298,94.752983 251.948151,106.216942 251.973831,117.679512 
	C251.993881,126.624962 258.310150,133.006714 267.202423,133.025650 
	C282.319702,133.057846 297.438385,132.934540 312.553406,133.123810 
	C315.417572,133.159683 318.267426,134.343796 321.123871,134.998093 
M230.787460,266.621490 
	C230.598022,266.369659 230.346176,266.255432 229.541504,265.752747 
	C222.003113,256.885071 224.621674,245.934753 223.730377,235.486053 
	C216.357956,235.486053 209.322815,235.486053 201.260315,235.486053 
	C201.875641,243.952042 201.656967,252.160553 203.222046,260.013580 
	C206.010147,274.003326 215.923920,282.688629 233.368973,281.980621 
	C231.839844,278.853119 230.409195,275.927032 228.924850,272.160431 
	C228.826660,271.606537 228.728455,271.052643 229.547379,270.621582 
	C231.667572,270.520721 233.787781,270.419891 236.710663,270.644806 
	C237.842178,270.544281 238.973694,270.443756 240.918716,270.590057 
	C242.845428,270.728882 244.772125,270.867706 247.165436,271.040161 
	C245.463074,275.027557 243.963257,278.540588 242.232651,282.594177 
	C255.655380,281.664612 266.337433,277.527710 271.774872,265.314728 
	C273.827667,260.703949 275.080902,255.440857 275.383026,250.396332 
	C277.009308,223.244812 270.423340,216.050674 250.569443,207.850021 
	C245.038788,205.565567 239.466980,203.317780 234.156937,200.581787 
	C229.833282,198.354004 226.683823,194.868149 225.972229,189.603958 
	C234.036545,188.715607 234.036545,188.715607 233.184036,184.023727 
	C231.153748,184.023727 229.005356,184.165771 226.894806,183.945419 
	C226.172226,183.869949 225.544449,182.886414 224.873367,182.317749 
	C225.545120,181.567261 226.086288,180.468460 226.921967,180.155182 
	C227.947845,179.770584 229.223907,179.973404 230.384583,180.042999 
	C234.175186,180.270187 234.520737,178.398224 233.335083,175.293777 
	C230.862839,175.104187 228.475433,174.921112 225.916534,174.724884 
	C226.248978,169.525864 228.769958,166.574814 233.092438,165.071350 
	C243.131195,161.579651 251.095047,166.772095 251.943161,177.615631 
	C252.328232,182.538925 252.008545,187.517349 252.008545,192.758957 
	C259.675323,192.758957 266.541016,192.758957 273.342377,192.758957 
	C273.342377,185.138168 274.086700,177.773102 273.176514,170.618546 
	C271.620178,158.385513 263.739105,150.098831 251.661774,148.232437 
	C243.856720,147.026291 235.684280,146.677185 227.847473,147.524902 
	C213.185333,149.110962 206.944000,155.357864 203.571579,169.820892 
	C202.895660,172.719635 202.467484,175.727097 202.362366,178.699905 
	C201.536301,202.063736 208.093643,211.715271 225.848892,219.963440 
	C230.372009,222.064636 235.032455,223.868134 239.599457,225.877365 
	C245.867477,228.634933 250.901978,232.764420 251.648666,239.960373 
	C252.210892,245.378540 251.992599,250.922333 251.635483,256.378387 
	C251.296143,261.562866 248.305023,265.289703 243.365463,267.641052 
	C243.050934,267.814972 242.736420,267.988892 242.206543,268.125732 
	C242.206543,268.125732 242.035568,268.261841 241.164474,268.143799 
	C239.122940,268.214600 237.081390,268.285431 234.363022,268.145966 
	C234.126877,268.138641 233.890732,268.131348 233.285782,267.658661 
	C232.520432,267.452667 231.755081,267.246674 230.996292,266.994598 
	C230.996292,266.994598 230.956421,267.018646 230.787460,266.621490 
M131.500534,281.236572 
	C141.162064,281.165771 150.837784,281.400604 160.481857,280.953278 
	C175.346893,280.263824 184.701660,271.691772 184.872696,257.815002 
	C185.238098,228.167084 185.193497,198.510254 184.932632,168.860474 
	C184.832748,157.508209 177.854126,148.905930 166.554123,148.117691 
	C149.158508,146.904236 131.643341,147.402786 114.178604,147.199478 
	C113.903244,147.196274 113.624229,147.506180 113.221390,147.744110 
	C113.221390,192.048477 113.221390,236.416733 113.221390,281.236938 
	C119.232674,281.236938 124.866882,281.236938 131.500534,281.236572 
M239.494370,288.438019 
	C238.551895,288.571106 237.530426,289.007904 236.680115,288.786682 
	C232.093658,287.593658 227.965820,288.200745 223.594559,290.988617 
	C231.051590,295.365112 247.007721,295.035522 252.441528,289.885956 
	C247.792892,289.244110 244.016571,288.722687 239.494370,288.438019 
z"/>
<path fill="#5192D9" opacity="1.000000" stroke="none" 
	d="
M364.278656,261.000000 
	C364.278870,219.567917 364.278870,178.635818 364.278870,137.384659 
	C365.952515,137.199356 367.214722,136.938934 368.477142,136.937836 
	C389.458832,136.919601 410.442261,136.774124 431.421570,137.002548 
	C443.467133,137.133713 455.027679,139.743240 461.895294,150.719681 
	C465.106354,155.851898 467.668915,162.391953 467.738525,168.326630 
	C468.230560,210.282410 468.299469,252.249756 467.865051,294.206818 
	C467.662323,313.785980 455.607147,326.901276 436.011475,327.801331 
	C412.447021,328.883667 388.794891,328.057281 364.278442,328.057281 
	C364.278442,306.269958 364.278442,283.884979 364.278656,261.000000 
M396.885345,258.500000 
	C396.885345,276.239532 396.885345,293.979095 396.885345,311.949158 
	C405.851349,311.949158 414.014130,312.347595 422.119476,311.835815 
	C430.045959,311.335327 434.872528,306.345764 435.977539,298.482544 
	C436.531097,294.543427 436.864136,290.538757 436.871857,286.562927 
	C436.939911,251.422577 436.942047,216.281982 436.873840,181.141647 
	C436.865784,176.996552 436.501831,172.828995 435.977600,168.713272 
	C435.098206,161.808273 430.887543,156.331100 424.124969,155.684082 
	C415.293182,154.839081 406.319458,155.477173 396.885223,155.477173 
	C396.885223,189.632111 396.885223,223.566055 396.885345,258.500000 
z"/>
<path fill="#5092D9" opacity="1.000000" stroke="none" 
	d="
M945.270447,314.245178 
	C937.983337,323.616333 928.111267,327.897552 917.248779,329.819000 
	C904.351501,332.100372 891.432373,331.882690 878.670105,328.247650 
	C865.727173,324.561127 857.585510,316.157043 853.377808,303.574005 
	C849.009033,290.509155 849.821899,277.074554 849.823059,263.354004 
	C860.621277,263.354004 870.879639,263.354004 881.933594,263.354004 
	C881.933594,269.002869 881.596863,274.624695 882.024170,280.187866 
	C882.492065,286.279175 882.946350,292.533691 884.697510,298.326843 
	C887.426086,307.353424 893.824890,311.256073 902.797302,310.812866 
	C911.712158,310.372437 919.294312,305.335358 920.433167,296.696320 
	C921.698425,287.097412 921.825745,277.111908 920.688904,267.502869 
	C919.656982,258.780579 912.619690,253.677231 904.882751,250.152954 
	C896.406006,246.291687 887.766663,242.776245 879.373413,238.745163 
	C859.688232,229.290833 850.699097,213.115448 851.035522,191.670578 
	C851.165344,183.398331 851.761780,175.035614 853.208618,166.903214 
	C855.815674,152.249451 864.659241,142.658661 879.244141,139.181412 
	C895.012085,135.422089 910.887695,135.011871 926.505188,140.123520 
	C942.620178,145.398041 952.541077,158.748001 953.004761,175.729736 
	C953.245361,184.541595 953.047180,193.365448 953.047180,202.599640 
	C942.907166,202.599640 933.004883,202.599640 922.248352,202.599640 
	C922.248352,198.802673 922.620605,194.842850 922.166626,190.980133 
	C921.359985,184.117630 920.947876,177.005280 918.726990,170.564224 
	C915.976501,162.587418 908.570862,161.428558 900.938110,161.641373 
	C893.551453,161.847305 887.534729,164.672897 885.316040,171.823883 
	C879.183838,191.588303 882.347046,209.033005 903.113159,217.344315 
	C913.144653,221.359238 923.079651,225.668076 932.826050,230.329422 
	C945.888245,236.576553 952.923645,247.248703 954.573547,261.635986 
	C955.929626,273.461243 956.351746,285.318939 953.200439,296.828461 
	C951.566650,302.795807 948.115601,308.265594 945.270447,314.245178 
z"/>
<path fill="#5192D9" opacity="1.000000" stroke="none" 
	d="
M800.634033,328.718658 
	C799.217773,323.612396 798.226929,318.642822 797.120728,313.094513 
	C796.249573,314.217712 795.450684,315.100403 794.816162,316.088623 
	C788.583130,325.796112 779.732849,330.921600 768.184631,331.047333 
	C763.705994,331.096130 759.151428,331.049225 754.752991,330.316376 
	C740.331421,327.913422 732.700500,320.222443 730.329590,305.850677 
	C729.573364,301.266571 729.133972,296.575470 729.122498,291.931915 
	C729.023743,252.109741 729.054077,212.287247 729.061462,172.464859 
	C729.061707,171.174515 729.229248,169.884201 729.337830,168.320007 
	C739.512695,168.320007 749.404236,168.320007 759.915710,168.320007 
	C759.915710,170.385529 759.915833,172.165680 759.915649,173.945816 
	C759.912415,211.768768 759.903137,249.591721 759.919556,287.414673 
	C759.920654,289.909668 759.926453,292.430481 760.260193,294.894592 
	C761.172485,301.631287 763.876160,307.313568 771.263489,308.617188 
	C779.035400,309.988739 786.892944,309.926636 792.024231,302.579987 
	C793.783264,300.061554 794.784180,296.467957 794.798523,293.359436 
	C794.980591,253.871109 794.919373,214.381668 794.920166,174.892502 
	C794.920227,172.902863 794.920227,170.913223 794.920227,168.474487 
	C805.218262,168.474487 815.235168,168.474487 825.576172,168.474487 
	C825.576172,221.817368 825.576172,275.036041 825.576172,328.855377 
	C817.268372,328.855377 809.163940,328.855377 800.634033,328.718658 
z"/>
<path fill="#5092D9" opacity="1.000000" stroke="none" 
	d="
M575.934082,322.982910 
	C570.804565,325.332764 566.164185,328.360992 561.105530,329.454376 
	C547.976013,332.292206 534.657349,332.123474 521.434753,329.557739 
	C504.723206,326.315002 496.740906,315.115631 494.093811,299.202606 
	C493.549103,295.928253 493.043243,292.598297 493.031586,289.292175 
	C492.931213,260.804779 492.764771,232.314941 493.085388,203.831085 
	C493.149506,198.135101 494.647430,192.275406 496.469147,186.820099 
	C499.383209,178.093887 505.860352,172.248215 514.437500,169.269287 
	C530.612549,163.651489 547.162476,163.299591 563.574829,167.930359 
	C579.773621,172.500870 588.490662,182.955338 588.792358,199.816589 
	C589.349548,230.956863 589.230896,262.119324 588.752258,293.262695 
	C588.580750,304.426086 585.087769,314.930084 575.934082,322.982910 
M558.822510,292.189087 
	C558.848328,263.529480 558.913391,234.869781 558.846497,206.210388 
	C558.838806,202.907684 558.705627,199.369370 557.536194,196.366516 
	C556.152832,192.814392 554.343201,188.538101 551.391174,186.642517 
	C539.174133,178.797363 524.989868,186.344040 523.956299,200.750168 
	C523.801453,202.908508 523.740417,205.077927 523.739441,207.242264 
	C523.730591,226.904999 523.726257,246.567764 523.759949,266.230469 
	C523.777039,276.226898 523.704285,286.228271 524.002319,296.217560 
	C524.170105,301.838806 525.606323,307.161987 530.951416,310.369202 
	C542.609192,317.364227 555.898071,311.312408 558.066772,298.037109 
	C558.334473,296.398499 558.565125,294.753815 558.822510,292.189087 
z"/>
<path fill="#5092D9" opacity="1.000000" stroke="none" 
	d="
M1179.297852,311.432404 
	C1181.081055,306.886871 1183.564697,302.667236 1183.871460,298.294891 
	C1184.532471,288.871094 1184.074463,279.368805 1184.074463,269.502350 
	C1194.511475,269.502350 1204.400635,269.502350 1215.731812,269.502350 
	C1215.004150,279.906494 1214.742798,290.304779 1213.367676,300.553589 
	C1212.656494,305.854309 1210.548340,311.192200 1208.048828,315.979309 
	C1203.529175,324.635254 1195.324097,328.551819 1186.107910,329.936005 
	C1172.210449,332.023376 1158.293335,332.189545 1144.439331,328.998016 
	C1131.190308,325.945831 1123.829956,317.243774 1121.045776,304.545349 
	C1119.667236,298.257294 1119.063110,291.687225 1119.018066,285.238373 
	C1118.822021,257.247253 1118.920776,229.253616 1119.029663,201.261353 
	C1119.043213,197.790237 1119.472412,194.260803 1120.199951,190.863556 
	C1122.457397,180.322281 1128.414795,172.704346 1138.825684,169.238052 
	C1155.706543,163.617615 1172.930664,163.358612 1190.011963,167.766403 
	C1206.502197,172.021667 1214.019531,181.040207 1214.791382,197.975204 
	C1215.534302,214.271820 1215.049438,230.624542 1215.077271,246.952652 
	C1215.078125,247.405106 1214.774536,247.858078 1214.418091,248.856110 
	C1193.133179,248.856110 1171.724365,248.856110 1150.120728,248.856110 
	C1149.891357,250.157211 1149.634399,250.938446 1149.633667,251.719894 
	C1149.619995,266.549774 1149.320557,281.388397 1149.729858,296.207275 
	C1150.199951,313.230988 1163.810059,320.252869 1179.297852,311.432404 
M1160.401123,184.444733 
	C1154.883789,185.643951 1151.181152,189.188751 1150.744263,194.587189 
	C1149.691895,207.589569 1149.327759,220.647675 1148.681885,233.767242 
	C1161.260864,233.767242 1172.507690,233.767242 1184.202637,233.767242 
	C1184.202637,223.958725 1184.222534,214.496689 1184.198364,205.034760 
	C1184.152100,186.928955 1179.293579,182.533737 1160.401123,184.444733 
z"/>
<path fill="#5092D9" opacity="1.000000" stroke="none" 
	d="
M656.581299,183.682922 
	C647.173523,184.763092 643.326477,188.535934 642.181030,197.744095 
	C641.853699,200.375549 641.930481,203.065140 641.929626,205.728104 
	C641.920715,234.212250 641.933411,262.696381 641.940796,291.180542 
	C641.941101,292.346527 641.929077,293.512939 641.955017,294.678436 
	C642.304932,310.397217 656.123901,318.529266 669.740601,310.410278 
	C672.847046,308.558044 675.337952,303.618042 675.808838,299.814117 
	C676.907593,290.937836 676.618042,281.888550 676.863464,272.908600 
	C676.921509,270.786713 676.872070,268.661865 676.872070,266.200867 
	C687.280334,266.200867 697.155396,266.200867 707.440125,266.200867 
	C707.760681,280.418365 708.228821,294.403015 704.296936,307.996796 
	C700.719788,320.363739 692.211731,327.760345 679.530640,329.770264 
	C664.809692,332.103485 650.075684,332.312500 635.429932,328.732635 
	C622.511353,325.574951 615.795959,316.645081 613.264160,304.399536 
	C611.792786,297.282990 611.156311,289.887573 611.081299,282.607971 
	C610.825684,257.791107 610.923950,232.969650 611.041199,208.150681 
	C611.063904,203.347473 611.518188,198.508408 612.226562,193.753387 
	C614.438293,178.906830 623.600525,170.485092 637.819763,167.318237 
	C652.814453,163.978638 667.829407,164.008667 682.800842,167.841873 
	C696.139526,171.257034 704.609253,179.471222 706.232117,193.190765 
	C707.571533,204.513199 707.540039,215.997772 708.136169,227.809143 
	C697.249573,227.809143 687.383972,227.809143 676.873474,227.809143 
	C676.873474,221.918533 676.955688,216.306641 676.846924,210.698441 
	C676.763123,206.379593 676.677307,202.037582 676.176208,197.754578 
	C674.879089,186.668945 669.492920,182.796341 656.581299,183.682922 
z"/>
<path fill="#5192D9" opacity="1.000000" stroke="none" 
	d="
M1105.171387,182.798203 
	C1105.633911,186.780075 1103.422852,186.883133 1100.838135,186.862885 
	C1091.854858,186.792496 1082.870483,186.835709 1073.077393,186.835709 
	C1073.077393,188.922760 1073.077393,190.677734 1073.077393,192.432693 
	C1073.078369,224.082977 1073.059814,255.733276 1073.088013,287.383545 
	C1073.104614,305.989105 1078.785156,310.873749 1097.266479,308.411346 
	C1099.677368,308.090149 1102.136719,308.132874 1104.874512,307.991486 
	C1104.995850,309.605103 1105.146973,310.727081 1105.153320,311.849854 
	C1105.180298,316.654510 1105.164673,321.459412 1105.164673,326.478790 
	C1090.772827,330.053131 1076.735596,331.834778 1062.578979,327.421295 
	C1049.606689,323.377045 1042.304443,312.462341 1042.271851,296.934326 
	C1042.200195,262.785492 1042.247314,228.636429 1042.246094,194.487442 
	C1042.245972,192.190842 1042.246094,189.894241 1042.246094,186.848785 
	C1038.809204,186.848785 1035.877808,186.865952 1032.946655,186.841049 
	C1031.617432,186.829742 1029.184326,186.946686 1029.126709,186.646225 
	C1028.323608,182.454880 1027.592285,178.209778 1027.450195,173.957458 
	C1027.410156,172.763504 1029.113770,170.843369 1030.403809,170.412567 
	C1033.044922,169.530594 1035.953857,169.049438 1038.741455,169.093750 
	C1043.906128,169.175842 1045.482422,166.487976 1045.974854,161.838577 
	C1046.709717,154.901001 1047.865967,147.999481 1049.124756,141.134323 
	C1049.337524,139.974136 1050.934570,138.229141 1051.947632,138.189987 
	C1058.736450,137.927475 1065.540161,138.053528 1072.860962,138.053528 
	C1072.860962,148.027939 1072.860962,157.603806 1072.860962,167.854919 
	C1083.735474,167.854919 1094.109497,167.854919 1105.172607,167.854919 
	C1105.172607,173.116577 1105.172607,177.720016 1105.171387,182.798203 
z"/>
<path fill="#5193D9" opacity="1.000000" stroke="none" 
	d="
M978.409302,288.999939 
	C978.409607,248.562500 978.409607,208.625076 978.409607,168.358826 
	C988.979919,168.358826 999.027527,168.358826 1009.401245,168.358826 
	C1009.401245,221.812958 1009.401245,275.030182 1009.401245,328.589783 
	C999.300110,328.589783 989.388977,328.589783 978.408936,328.589783 
	C978.408936,315.598602 978.408936,302.549286 978.409302,288.999939 
z"/>
<path fill="#3277B4" opacity="1.000000" stroke="none" 
	d="
M321.183899,134.628494 
	C318.267426,134.343796 315.417572,133.159683 312.553406,133.123810 
	C297.438385,132.934540 282.319702,133.057846 267.202423,133.025650 
	C258.310150,133.006714 251.993881,126.624962 251.973831,117.679512 
	C251.948151,106.216942 252.068298,94.752983 251.922821,83.292191 
	C251.844131,77.092659 251.343567,70.898483 251.022919,64.277412 
	C252.328232,64.761330 253.819092,65.493889 254.933731,66.604156 
	C276.198151,87.785568 297.429047,109.000710 318.616974,130.258621 
	C319.720032,131.365356 320.378479,132.915283 321.183899,134.628494 
z"/>
<path fill="#5392D7" opacity="1.000000" stroke="none" 
	d="
M978.882935,131.851685 
	C980.426758,125.310089 984.676270,121.690498 990.486206,120.291985 
	C996.330505,118.885208 1001.791992,120.462425 1005.944458,125.012367 
	C1011.738464,131.361038 1011.033142,140.379883 1004.528992,145.795898 
	C997.878662,151.333664 986.567993,150.437592 981.894714,143.309326 
	C979.894287,140.258179 979.793701,135.961456 978.882935,131.851685 
z"/>
<path fill="#FBFEFE" opacity="1.000000" stroke="none" 
	d="
M131.000824,281.236755 
	C124.866882,281.236938 119.232674,281.236938 113.221390,281.236938 
	C113.221390,236.416733 113.221390,192.048477 113.221390,147.744110 
	C113.624229,147.506180 113.903244,147.196274 114.178604,147.199478 
	C131.643341,147.402786 149.158508,146.904236 166.554123,148.117691 
	C177.854126,148.905930 184.832748,157.508209 184.932632,168.860474 
	C185.193497,198.510254 185.238098,228.167084 184.872696,257.815002 
	C184.701660,271.691772 175.346893,280.263824 160.481857,280.953278 
	C150.837784,281.400604 141.162064,281.165771 131.000824,281.236755 
M163.175049,199.500000 
	C163.134171,190.180267 163.267151,180.855438 162.993149,171.542557 
	C162.800827,165.006271 159.457596,160.549210 154.019150,160.084824 
	C147.956955,159.567169 141.816483,159.966156 135.465851,159.966156 
	C135.465851,196.518051 135.465851,232.683960 135.465851,269.309021 
	C139.963760,269.309021 144.098587,269.316528 148.233398,269.307587 
	C159.710892,269.282745 163.085709,266.000092 163.137573,254.427078 
	C163.218124,236.451691 163.169266,218.475723 163.175049,199.500000 
z"/>
<path fill="#F9FDFE" opacity="1.000000" stroke="none" 
	d="
M243.748627,267.742798 
	C248.305023,265.289703 251.296143,261.562866 251.635483,256.378387 
	C251.992599,250.922333 252.210892,245.378540 251.648666,239.960373 
	C250.901978,232.764420 245.867477,228.634933 239.599457,225.877365 
	C235.032455,223.868134 230.372009,222.064636 225.848892,219.963440 
	C208.093643,211.715271 201.536301,202.063736 202.362366,178.699905 
	C202.467484,175.727097 202.895660,172.719635 203.571579,169.820892 
	C206.944000,155.357864 213.185333,149.110962 227.847473,147.524902 
	C235.684280,146.677185 243.856720,147.026291 251.661774,148.232437 
	C263.739105,150.098831 271.620178,158.385513 273.176514,170.618546 
	C274.086700,177.773102 273.342377,185.138168 273.342377,192.758957 
	C266.541016,192.758957 259.675323,192.758957 252.008545,192.758957 
	C252.008545,187.517349 252.328232,182.538925 251.943161,177.615631 
	C251.095047,166.772095 243.131195,161.579651 233.092438,165.071350 
	C228.769958,166.574814 226.248978,169.525864 225.916534,174.724884 
	C228.475433,174.921112 230.862839,175.104187 233.335083,175.293777 
	C234.520737,178.398224 234.175186,180.270187 230.384583,180.042999 
	C229.223907,179.973404 227.947845,179.770584 226.921967,180.155182 
	C226.086288,180.468460 225.545120,181.567261 224.873367,182.317749 
	C225.544449,182.886414 226.172226,183.869949 226.894806,183.945419 
	C229.005356,184.165771 231.153748,184.023727 233.184036,184.023727 
	C234.036545,188.715607 234.036545,188.715607 225.972229,189.603958 
	C226.683823,194.868149 229.833282,198.354004 234.156937,200.581787 
	C239.466980,203.317780 245.038788,205.565567 250.569443,207.850021 
	C270.423340,216.050674 277.009308,223.244812 275.383026,250.396332 
	C275.080902,255.440857 273.827667,260.703949 271.774872,265.314728 
	C266.337433,277.527710 255.655380,281.664612 242.232651,282.594177 
	C243.963257,278.540588 245.463074,275.027557 247.165436,271.040161 
	C244.772125,270.867706 242.845428,270.728882 240.562317,270.232391 
	C240.815811,269.337097 241.425690,268.799469 242.035568,268.261841 
	C242.035568,268.261841 242.206543,268.125732 242.489410,268.110016 
	C243.097717,267.977142 243.423172,267.859985 243.748627,267.742798 
z"/>
<path fill="#F9FDFE" opacity="1.000000" stroke="none" 
	d="
M228.978546,273.000977 
	C230.409195,275.927032 231.839844,278.853119 233.368973,281.980621 
	C215.923920,282.688629 206.010147,274.003326 203.222046,260.013580 
	C201.656967,252.160553 201.875641,243.952042 201.260315,235.486053 
	C209.322815,235.486053 216.357956,235.486053 223.730377,235.486053 
	C224.621674,245.934753 222.003113,256.885071 229.893982,266.189117 
	C230.440140,266.834045 230.676804,266.965088 230.956421,267.018646 
	C230.956421,267.018646 230.996292,266.994598 231.171417,267.264923 
	C232.115875,267.731537 232.885239,267.927826 233.654602,268.124084 
	C233.890732,268.131348 234.126877,268.138641 234.807022,268.444611 
	C235.470001,269.268524 235.688980,269.793762 235.907974,270.319031 
	C233.787781,270.419891 231.667572,270.520721 228.882202,270.594238 
	C228.470871,271.378265 228.724701,272.189606 228.978546,273.000977 
z"/>
<path fill="#E6F5FD" opacity="1.000000" stroke="none" 
	d="
M239.867310,288.319641 
	C244.016571,288.722687 247.792892,289.244110 252.441528,289.885956 
	C247.007721,295.035522 231.051590,295.365112 223.594559,290.988617 
	C227.965820,288.200745 232.093658,287.593658 236.680115,288.786682 
	C237.530426,289.007904 238.551895,288.571106 239.867310,288.319641 
z"/>
<path fill="#E6F5FD" opacity="1.000000" stroke="none" 
	d="
M236.309326,270.481934 
	C235.688980,269.793762 235.470001,269.268524 235.145447,268.549744 
	C237.081390,268.285431 239.122940,268.214600 241.600021,268.202820 
	C241.425690,268.799469 240.815811,269.337097 240.155579,270.108978 
	C238.973694,270.443756 237.842178,270.544281 236.309326,270.481934 
z"/>
<path fill="#E6F5FD" opacity="1.000000" stroke="none" 
	d="
M233.470184,267.891357 
	C232.885239,267.927826 232.115875,267.731537 231.168121,267.287964 
	C231.755081,267.246674 232.520432,267.452667 233.470184,267.891357 
z"/>
<path fill="#E6F5FD" opacity="1.000000" stroke="none" 
	d="
M228.951691,272.580688 
	C228.724701,272.189606 228.470871,271.378265 228.423645,270.532837 
	C228.728455,271.052643 228.826660,271.606537 228.951691,272.580688 
z"/>
<path fill="#E6F5FD" opacity="1.000000" stroke="none" 
	d="
M243.557037,267.691925 
	C243.423172,267.859985 243.097717,267.977142 242.597092,268.128571 
	C242.736420,267.988892 243.050934,267.814972 243.557037,267.691925 
z"/>
<path fill="#E6F5FD" opacity="1.000000" stroke="none" 
	d="
M230.871948,266.820068 
	C230.676804,266.965088 230.440140,266.834045 230.139191,266.452148 
	C230.346176,266.255432 230.598022,266.369659 230.871948,266.820068 
z"/>
<path fill="#FDFEFF" opacity="1.000000" stroke="none" 
	d="
M396.885284,258.000000 
	C396.885223,223.566055 396.885223,189.632111 396.885223,155.477173 
	C406.319458,155.477173 415.293182,154.839081 424.124969,155.684082 
	C430.887543,156.331100 435.098206,161.808273 435.977600,168.713272 
	C436.501831,172.828995 436.865784,176.996552 436.873840,181.141647 
	C436.942047,216.281982 436.939911,251.422577 436.871857,286.562927 
	C436.864136,290.538757 436.531097,294.543427 435.977539,298.482544 
	C434.872528,306.345764 430.045959,311.335327 422.119476,311.835815 
	C414.014130,312.347595 405.851349,311.949158 396.885345,311.949158 
	C396.885345,293.979095 396.885345,276.239532 396.885284,258.000000 
z"/>
<path fill="#FCFEFE" opacity="1.000000" stroke="none" 
	d="
M558.817749,292.650513 
	C558.565125,294.753815 558.334473,296.398499 558.066772,298.037109 
	C555.898071,311.312408 542.609192,317.364227 530.951416,310.369202 
	C525.606323,307.161987 524.170105,301.838806 524.002319,296.217560 
	C523.704285,286.228271 523.777039,276.226898 523.759949,266.230469 
	C523.726257,246.567764 523.730591,226.904999 523.739441,207.242264 
	C523.740417,205.077927 523.801453,202.908508 523.956299,200.750168 
	C524.989868,186.344040 539.174133,178.797363 551.391174,186.642517 
	C554.343201,188.538101 556.152832,192.814392 557.536194,196.366516 
	C558.705627,199.369370 558.838806,202.907684 558.846497,206.210388 
	C558.913391,234.869781 558.848328,263.529480 558.817749,292.650513 
z"/>
<path fill="#FBFDFE" opacity="1.000000" stroke="none" 
	d="
M1160.812744,184.323883 
	C1179.293579,182.533737 1184.152100,186.928955 1184.198364,205.034760 
	C1184.222534,214.496689 1184.202637,223.958725 1184.202637,233.767242 
	C1172.507690,233.767242 1161.260864,233.767242 1148.681885,233.767242 
	C1149.327759,220.647675 1149.691895,207.589569 1150.744263,194.587189 
	C1151.181152,189.188751 1154.883789,185.643951 1160.812744,184.323883 
z"/>
<path fill="#5092D9" opacity="1.000000" stroke="none" 
	d="
M163.175156,200.000000 
	C163.169266,218.475723 163.218124,236.451691 163.137573,254.427078 
	C163.085709,266.000092 159.710892,269.282745 148.233398,269.307587 
	C144.098587,269.316528 139.963760,269.309021 135.465851,269.309021 
	C135.465851,232.683960 135.465851,196.518051 135.465851,159.966156 
	C141.816483,159.966156 147.956955,159.567169 154.019150,160.084824 
	C159.457596,160.549210 162.800827,165.006271 162.993149,171.542557 
	C163.267151,180.855438 163.134171,190.180267 163.175156,200.000000 
z"/>
</svg>