<svg version="1.1" id="Layer_1" xmlns="http://www.w3.org/2000/svg" xmlns:xlink="http://www.w3.org/1999/xlink" x="0px" y="0px"
	 width="100%" viewBox="0 0 247 287" enable-background="new 0 0 247 287" xml:space="preserve">
<path fill="none" opacity="1.000000" stroke="none" 
	d="
M1.000000,228.000000 
	C1.000000,152.000015 1.000000,76.500015 1.000000,1.000020 
	C83.333313,1.000014 165.666626,1.000014 247.999954,1.000007 
	C247.999969,96.666634 247.999969,192.333267 247.999985,287.999939 
	C165.666702,287.999939 83.333412,287.999939 1.000060,287.999969 
	C1.000000,268.166656 1.000000,248.333328 1.000000,228.000000 
M239.721100,76.431351 
	C227.065277,63.682804 214.448761,50.894909 201.738327,38.201046 
	C194.571960,31.044033 187.250900,24.041918 179.615173,16.348154 
	C177.259506,15.660065 174.901993,14.370072 172.548477,14.377377 
	C150.026901,14.447280 127.506020,14.736471 104.056702,14.831676 
	C78.687004,14.849671 53.317287,14.859200 27.947639,14.905256 
	C26.305824,14.908237 24.664520,15.192520 22.334381,15.193843 
	C20.844313,15.771825 19.354244,16.349808 17.412729,16.998344 
	C17.412729,16.998344 17.033573,17.253340 16.378719,17.369062 
	C10.624777,21.411322 9.899176,27.356121 9.903300,33.751541 
	C9.950020,106.184677 9.931272,178.617844 9.945766,251.051010 
	C9.946097,252.706848 10.130011,254.362640 10.065986,256.750519 
	C10.121325,257.493591 10.176662,258.236694 10.012939,259.874115 
	C9.760062,265.758514 9.718546,271.431702 14.446019,276.130859 
	C18.976622,280.634338 24.537193,280.852325 30.189777,280.856720 
	C93.488342,280.905823 156.786972,280.893433 220.085571,280.889435 
	C221.916382,280.889343 223.765579,280.949066 225.575012,280.726929 
	C236.631424,279.369537 242.036896,274.263062 242.050568,264.359528 
	C242.133530,204.226089 242.098145,144.092407 241.976746,83.959068 
	C241.972092,81.652374 240.683975,79.348267 239.721100,76.431351 
z"/>
<path fill="#5193D9" opacity="1.000000" stroke="none" 
	d="
M23.022980,15.345949 
	C24.664520,15.192520 26.305824,14.908237 27.947639,14.905256 
	C53.317287,14.859200 78.687004,14.849671 104.811859,15.201408 
	C107.367432,15.713631 109.167656,15.977182 110.968285,15.979933 
	C129.543915,16.008314 148.120026,15.928077 166.694977,16.044247 
	C170.792786,16.069876 174.886505,16.749884 178.977448,17.537022 
	C178.967621,19.307228 178.962463,20.668976 178.673019,22.254478 
	C177.122650,25.088490 175.222534,27.745869 178.967346,30.454401 
	C178.996017,41.061974 179.007782,51.200371 179.011032,61.338772 
	C179.014633,72.598373 184.382919,78.002266 195.642761,78.031204 
	C209.769318,78.067520 223.895935,78.082932 238.096252,78.476051 
	C238.784210,80.816620 239.932098,82.787651 239.935211,84.760483 
	C240.029984,144.901260 240.039642,205.042267 239.913910,265.182922 
	C239.908768,267.642120 238.950836,270.414093 237.597610,272.494476 
	C234.060379,277.932434 228.241211,278.962555 222.328873,278.967743 
	C158.189697,279.024078 94.050468,279.004761 29.911251,279.005951 
	C29.244871,279.005951 28.578171,279.017365 27.912157,279.001312 
	C17.240318,278.743866 12.347194,273.785889 11.914412,263.072571 
	C11.858477,261.687927 10.816969,260.343048 10.232000,258.979767 
	C10.176662,258.236694 10.121325,257.493591 10.518682,256.266235 
	C11.310001,253.738174 11.943150,251.694656 11.944630,249.650665 
	C11.995753,179.016937 11.982461,108.383194 11.995071,37.749443 
	C11.996245,31.176617 10.845277,24.290976 16.749374,19.184446 
	C17.122059,18.862108 16.951437,17.911606 17.033573,17.253340 
	C17.033573,17.253340 17.412729,16.998344 18.031700,16.992592 
	C20.108107,16.439877 21.565542,15.892913 23.022980,15.345949 
M159.136566,208.992554 
	C159.136566,208.992554 159.169006,208.865295 159.118500,208.396255 
	C159.118500,208.396255 158.879761,207.989380 158.803802,207.347549 
	C158.480194,206.548630 158.156586,205.749725 158.330978,204.682343 
	C158.526947,204.368027 158.722931,204.053711 159.659821,203.825256 
	C160.394943,203.724625 161.130051,203.623993 162.725510,203.843475 
	C166.186066,204.085510 169.646606,204.327545 173.280869,205.323227 
	C173.303558,205.580032 173.326233,205.836838 172.761368,206.430222 
	C172.582764,207.293732 172.404144,208.157227 171.841324,209.545822 
	C171.573441,210.363098 171.305542,211.180359 170.457520,212.421509 
	C172.243393,216.901901 174.814636,215.117737 178.050583,213.300278 
	C178.702805,213.214005 179.355026,213.127731 180.563644,212.999466 
	C180.852707,212.773712 181.141754,212.547974 182.157944,212.269043 
	C190.182709,210.209564 195.308395,204.558853 197.432678,197.179962 
	C199.371017,190.447052 199.645386,183.159271 200.062195,176.081238 
	C200.753281,164.345856 196.008636,155.358490 185.226410,150.109283 
	C178.508881,146.838913 171.559570,144.043121 164.856018,140.746155 
	C160.615265,138.660446 156.326508,136.302048 155.797134,130.431168 
	C156.994934,130.122360 157.940643,130.129745 158.527161,129.674438 
	C159.703812,128.761017 160.684250,127.594818 161.745667,126.532967 
	C160.553833,125.947372 159.376968,125.328339 158.165558,124.786522 
	C157.155685,124.334846 156.105301,123.973747 155.023544,123.553368 
	C157.904236,121.659470 160.206650,120.145760 162.509064,118.632050 
	C160.426392,117.401352 158.343719,116.170662 155.427322,114.447296 
	C156.407608,112.958511 157.227753,110.718132 158.822739,109.460121 
	C166.346069,103.526222 176.790878,107.934776 177.936646,117.515213 
	C178.388977,121.297279 178.313614,125.167351 178.178513,128.986740 
	C178.074554,131.926224 178.945786,133.279022 182.104584,133.125671 
	C186.258591,132.924011 190.433487,132.946091 194.591217,133.097183 
	C197.643707,133.208115 198.782318,131.881927 198.714630,128.957001 
	C198.610687,124.463470 198.896133,119.950478 198.595886,115.473953 
	C197.782837,103.352722 190.325409,93.622559 180.280609,92.294960 
	C173.059189,91.340523 165.647491,90.654938 158.419159,91.187057 
	C146.364609,92.074486 137.994141,95.629547 134.768524,110.430130 
	C134.204865,113.016502 133.490051,115.609207 133.302307,118.231728 
	C132.235718,133.129898 134.753387,147.407425 148.948532,154.775406 
	C149.652969,155.110245 150.357407,155.445084 151.553345,156.159637 
	C152.301804,156.490219 153.050262,156.820801 154.194626,157.642670 
	C154.783508,157.822021 155.372375,158.001389 156.464737,158.454742 
	C157.168030,158.743454 157.871338,159.032166 158.920807,159.830948 
	C159.643402,160.099243 160.366013,160.367538 161.655472,160.858932 
	C162.052689,160.941086 162.449905,161.023239 163.217651,161.609924 
	C163.806229,161.773804 164.394806,161.937683 165.292404,162.244843 
	C165.292404,162.244843 165.632950,162.252075 165.977188,162.674454 
	C166.309494,162.802155 166.641785,162.929871 167.438095,163.522156 
	C169.547409,164.728714 171.656723,165.935272 174.018326,167.610550 
	C174.306107,167.809998 174.593872,168.009445 175.019882,168.593719 
	C175.019882,168.593719 175.248795,168.932526 175.248306,169.682892 
	C176.251541,173.114166 177.254776,176.545441 178.214706,180.735260 
	C178.359482,183.020584 178.504272,185.305908 178.195465,188.179489 
	C177.147980,191.458618 176.100510,194.737762 174.566574,198.305466 
	C174.035538,198.838791 173.504486,199.372131 172.438797,200.030197 
	C172.181488,200.284576 171.924179,200.538956 171.118622,200.856140 
	C170.765533,200.958282 170.412445,201.060410 169.165024,201.017227 
	C166.755264,201.075928 164.345490,201.134628 161.263657,200.984451 
	C156.002899,198.110245 154.466812,193.089951 153.928040,187.689758 
	C153.517181,183.571411 153.625458,179.403137 153.437256,175.260040 
	C153.325180,172.792480 152.332626,171.237457 149.476578,171.309586 
	C144.830856,171.426880 140.168930,171.168762 135.539291,171.465607 
	C134.402435,171.538513 132.384064,173.202637 132.433685,174.036224 
	C132.865875,181.295517 133.132599,188.638504 134.520493,195.747314 
	C136.059418,203.629761 140.712158,209.551682 148.958725,212.667923 
	C149.648941,212.818481 150.339172,212.969055 151.662323,213.218292 
	C152.301758,213.249405 152.941193,213.280518 154.042160,213.916275 
	C156.532959,214.246552 159.023758,214.576813 163.005310,215.104736 
	C161.369537,212.405716 160.663879,211.241364 159.999008,210.023193 
	C159.999008,210.023193 159.931900,210.015533 159.893784,209.504044 
	C159.639801,209.289825 159.385818,209.075607 159.136566,208.992554 
M51.853230,135.500000 
	C51.853912,159.819412 51.873241,184.138840 51.830433,208.458176 
	C51.825382,211.327637 51.729458,213.755798 55.798920,213.674713 
	C70.114578,213.389511 84.447113,213.606186 98.747391,213.011032 
	C108.956635,212.586151 117.634125,203.725677 117.697411,193.900620 
	C117.879822,165.585098 117.867050,137.266495 117.650482,108.951241 
	C117.580894,99.852737 110.250198,92.393875 101.708649,92.104362 
	C86.902527,91.602524 72.082375,91.470001 57.283298,90.830917 
	C52.682457,90.632233 51.694355,92.278145 51.776104,96.523506 
	C52.019772,109.178139 51.856976,121.840599 51.853230,135.500000 
M178.213272,221.397934 
	C169.827789,219.497650 161.428848,217.347382 152.725586,222.284561 
	C160.295258,227.066833 171.352264,226.774551 178.213272,221.397934 
z"/>
<path fill="#3577B3" opacity="1.000000" stroke="none" 
	d="
M238.022522,78.107353 
	C223.895935,78.082932 209.769318,78.067520 195.642761,78.031204 
	C184.382919,78.002266 179.014633,72.598373 179.011032,61.338772 
	C179.007782,51.200371 178.996017,41.061974 178.985016,30.012875 
	C178.973785,26.745026 178.965546,24.387873 178.957306,22.030722 
	C178.962463,20.668976 178.967621,19.307228 179.233734,17.507706 
	C179.662979,17.036631 179.831253,17.003328 179.999527,16.970028 
	C187.250900,24.041918 194.571960,31.044033 201.738327,38.201046 
	C214.448761,50.894909 227.065277,63.682804 239.808716,76.984627 
	C239.271729,77.727722 238.647125,77.917542 238.022522,78.107353 
z"/>
<path fill="#679AD4" opacity="1.000000" stroke="none" 
	d="
M238.096252,78.476051 
	C238.647125,77.917542 239.271729,77.727722 239.945129,77.290436 
	C240.683975,79.348267 241.972092,81.652374 241.976746,83.959068 
	C242.098145,144.092407 242.133530,204.226089 242.050568,264.359528 
	C242.036896,274.263062 236.631424,279.369537 225.575012,280.726929 
	C223.765579,280.949066 221.916382,280.889343 220.085571,280.889435 
	C156.786972,280.893433 93.488342,280.905823 30.189777,280.856720 
	C24.537193,280.852325 18.976622,280.634338 14.446019,276.130859 
	C9.718546,271.431702 9.760062,265.758514 10.122469,259.426941 
	C10.816969,260.343048 11.858477,261.687927 11.914412,263.072571 
	C12.347194,273.785889 17.240318,278.743866 27.912157,279.001312 
	C28.578171,279.017365 29.244871,279.005951 29.911251,279.005951 
	C94.050468,279.004761 158.189697,279.024078 222.328873,278.967743 
	C228.241211,278.962555 234.060379,277.932434 237.597610,272.494476 
	C238.950836,270.414093 239.908768,267.642120 239.913910,265.182922 
	C240.039642,205.042267 240.029984,144.901260 239.935211,84.760483 
	C239.932098,82.787651 238.784210,80.816620 238.096252,78.476051 
z"/>
<path fill="#679AD4" opacity="1.000000" stroke="none" 
	d="
M16.706146,17.311201 
	C16.951437,17.911606 17.122059,18.862108 16.749374,19.184446 
	C10.845277,24.290976 11.996245,31.176617 11.995071,37.749443 
	C11.982461,108.383194 11.995753,179.016937 11.944630,249.650665 
	C11.943150,251.694656 11.310001,253.738174 10.599836,255.900192 
	C10.130011,254.362640 9.946097,252.706848 9.945766,251.051010 
	C9.931272,178.617844 9.950020,106.184677 9.903300,33.751541 
	C9.899176,27.356121 10.624777,21.411322 16.706146,17.311201 
z"/>
<path fill="#679AD4" opacity="1.000000" stroke="none" 
	d="
M179.807343,16.659092 
	C179.831253,17.003328 179.662979,17.036631 179.238403,17.099247 
	C174.886505,16.749884 170.792786,16.069876 166.694977,16.044247 
	C148.120026,15.928077 129.543915,16.008314 110.968285,15.979933 
	C109.167656,15.977182 107.367432,15.713631 105.275978,15.266953 
	C127.506020,14.736471 150.026901,14.447280 172.548477,14.377377 
	C174.901993,14.370072 177.259506,15.660065 179.807343,16.659092 
z"/>
<path fill="#679AD4" opacity="1.000000" stroke="none" 
	d="
M22.678680,15.269896 
	C21.565542,15.892913 20.108107,16.439877 18.257423,16.957314 
	C19.354244,16.349808 20.844313,15.771825 22.678680,15.269896 
z"/>
<path fill="#F5FAFE" opacity="1.000000" stroke="none" 
	d="
M51.853096,135.000000 
	C51.856976,121.840599 52.019772,109.178139 51.776104,96.523506 
	C51.694355,92.278145 52.682457,90.632233 57.283298,90.830917 
	C72.082375,91.470001 86.902527,91.602524 101.708649,92.104362 
	C110.250198,92.393875 117.580894,99.852737 117.650482,108.951241 
	C117.867050,137.266495 117.879822,165.585098 117.697411,193.900620 
	C117.634125,203.725677 108.956635,212.586151 98.747391,213.011032 
	C84.447113,213.606186 70.114578,213.389511 55.798920,213.674713 
	C51.729458,213.755798 51.825382,211.327637 51.830433,208.458176 
	C51.873241,184.138840 51.853912,159.819412 51.853096,135.000000 
M96.039597,107.865738 
	C93.342751,106.251686 90.820953,103.978195 87.901382,103.203194 
	C84.785484,102.376076 81.276581,103.166252 77.970673,102.883301 
	C73.883797,102.533501 72.586098,103.986336 72.610863,108.192146 
	C72.785316,137.810760 72.699135,167.430878 72.717834,197.050507 
	C72.718842,198.644989 72.914742,200.239349 73.043175,202.186325 
	C77.485359,202.186325 81.450378,202.274902 85.410149,202.168549 
	C94.655159,201.920227 96.764343,199.950546 97.675095,190.849945 
	C97.823761,189.364426 97.798355,187.858124 97.797241,186.361481 
	C97.782013,165.894043 97.848373,145.425812 97.673058,124.959679 
	C97.626350,119.507118 96.831703,114.060982 96.039597,107.865738 
z"/>
<path fill="#F3FAFD" opacity="1.000000" stroke="none" 
	d="
M180.007263,213.041473 
	C179.355026,213.127731 178.702805,213.214005 177.307327,213.204529 
	C174.721939,212.738419 172.879791,212.368027 171.037659,211.997635 
	C171.305542,211.180359 171.573441,210.363098 172.271149,209.154266 
	C172.916946,207.873032 173.132935,206.983337 173.348923,206.093643 
	C173.326233,205.836838 173.303558,205.580032 173.091858,204.662704 
	C171.955017,203.055634 171.007202,202.109085 170.059372,201.162537 
	C170.412445,201.060410 170.765533,200.958282 171.683792,200.807281 
	C172.490463,200.474121 172.731964,200.189789 172.973450,199.905457 
	C173.504486,199.372131 174.035538,198.838791 175.164108,198.101257 
	C176.724106,194.461777 177.686584,191.026505 178.649063,187.591232 
	C178.504272,185.305908 178.359482,183.020584 178.463318,180.070679 
	C178.772537,175.513153 179.110718,171.528442 175.248795,168.932526 
	C175.248795,168.932526 175.019882,168.593719 174.878540,168.124268 
	C174.413483,167.483826 174.089767,167.312836 173.766037,167.141830 
	C171.656723,165.935272 169.547409,164.728714 167.071381,163.035522 
	C166.347427,162.449966 165.990189,162.351028 165.632950,162.252075 
	C165.632950,162.252075 165.292404,162.244843 164.970184,161.899078 
	C164.047699,161.404007 163.447403,161.254700 162.847122,161.105392 
	C162.449905,161.023239 162.052689,160.941086 161.269562,160.437119 
	C160.113983,159.783829 159.344315,159.552338 158.574631,159.320862 
	C157.871338,159.032166 157.168030,158.743454 156.053406,158.028000 
	C155.027618,157.451309 154.413162,157.301346 153.798721,157.151382 
	C153.050262,156.820801 152.301804,156.490219 151.228821,155.653687 
	C150.168076,154.833160 149.431870,154.518585 148.695648,154.204010 
	C134.753387,147.407425 132.235718,133.129898 133.302307,118.231728 
	C133.490051,115.609207 134.204865,113.016502 134.768524,110.430130 
	C137.994141,95.629547 146.364609,92.074486 158.419159,91.187057 
	C165.647491,90.654938 173.059189,91.340523 180.280609,92.294960 
	C190.325409,93.622559 197.782837,103.352722 198.595886,115.473953 
	C198.896133,119.950478 198.610687,124.463470 198.714630,128.957001 
	C198.782318,131.881927 197.643707,133.208115 194.591217,133.097183 
	C190.433487,132.946091 186.258591,132.924011 182.104584,133.125671 
	C178.945786,133.279022 178.074554,131.926224 178.178513,128.986740 
	C178.313614,125.167351 178.388977,121.297279 177.936646,117.515213 
	C176.790878,107.934776 166.346069,103.526222 158.822739,109.460121 
	C157.227753,110.718132 156.407608,112.958511 155.427322,114.447296 
	C158.343719,116.170662 160.426392,117.401352 162.509064,118.632050 
	C160.206650,120.145760 157.904236,121.659470 155.023544,123.553368 
	C156.105301,123.973747 157.155685,124.334846 158.165558,124.786522 
	C159.376968,125.328339 160.553833,125.947372 161.745667,126.532967 
	C160.684250,127.594818 159.703812,128.761017 158.527161,129.674438 
	C157.940643,130.129745 156.994934,130.122360 155.797134,130.431168 
	C156.326508,136.302048 160.615265,138.660446 164.856018,140.746155 
	C171.559570,144.043121 178.508881,146.838913 185.226410,150.109283 
	C196.008636,155.358490 200.753281,164.345856 200.062195,176.081238 
	C199.645386,183.159271 199.371017,190.447052 197.432678,197.179962 
	C195.308395,204.558853 190.182709,210.209564 181.499557,212.273590 
	C180.563202,212.532578 180.285233,212.787033 180.007263,213.041473 
z"/>
<path fill="#F3FAFD" opacity="1.000000" stroke="none" 
	d="
M157.832977,204.950806 
	C158.156586,205.749725 158.480194,206.548630 158.696106,207.782837 
	C158.781952,208.433853 158.975479,208.649567 159.169006,208.865295 
	C159.169006,208.865295 159.136566,208.992554 159.170471,209.176163 
	C159.446884,209.578354 159.689392,209.796936 159.931900,210.015533 
	C159.931900,210.015533 159.999008,210.023193 159.954636,210.450638 
	C157.800385,211.689270 155.690506,212.500443 153.580627,213.311630 
	C152.941193,213.280518 152.301758,213.249405 151.160294,212.886292 
	C150.020233,212.429337 149.382217,212.304382 148.744186,212.179413 
	C140.712158,209.551682 136.059418,203.629761 134.520493,195.747314 
	C133.132599,188.638504 132.865875,181.295517 132.433685,174.036224 
	C132.384064,173.202637 134.402435,171.538513 135.539291,171.465607 
	C140.168930,171.168762 144.830856,171.426880 149.476578,171.309586 
	C152.332626,171.237457 153.325180,172.792480 153.437256,175.260040 
	C153.625458,179.403137 153.517181,183.571411 153.928040,187.689758 
	C154.466812,193.089951 156.002899,198.110245 161.610580,201.382141 
	C161.926727,202.361008 161.895950,202.942169 161.865173,203.523346 
	C161.130051,203.623993 160.394943,203.724625 159.127548,203.597534 
	C158.341171,203.896820 158.087082,204.423813 157.832977,204.950806 
z"/>
<path fill="#CDE9FC" opacity="1.000000" stroke="none" 
	d="
M178.172302,221.739304 
	C171.352264,226.774551 160.295258,227.066833 152.725586,222.284561 
	C161.428848,217.347382 169.827789,219.497650 178.172302,221.739304 
z"/>
<path fill="#C8E4F8" opacity="1.000000" stroke="none" 
	d="
M162.295349,203.683411 
	C161.895950,202.942169 161.926727,202.361008 161.946625,201.486572 
	C164.345490,201.134628 166.755264,201.075928 169.612198,201.089890 
	C171.007202,202.109085 171.955017,203.055634 173.005005,204.285889 
	C169.646606,204.327545 166.186066,204.085510 162.295349,203.683411 
z"/>
<path fill="#C8E4F8" opacity="1.000000" stroke="none" 
	d="
M153.811401,213.613953 
	C155.690506,212.500443 157.800385,211.689270 159.934235,210.477554 
	C160.663879,211.241364 161.369537,212.405716 163.005310,215.104736 
	C159.023758,214.576813 156.532959,214.246552 153.811401,213.613953 
z"/>
<path fill="#C8E4F8" opacity="1.000000" stroke="none" 
	d="
M175.248550,169.307709 
	C179.110718,171.528442 178.772537,175.513153 178.484955,179.691406 
	C177.254776,176.545441 176.251541,173.114166 175.248550,169.307709 
z"/>
<path fill="#C8E4F8" opacity="1.000000" stroke="none" 
	d="
M170.747589,212.209564 
	C172.879791,212.368027 174.721939,212.738419 176.977661,213.199799 
	C174.814636,215.117737 172.243393,216.901901 170.747589,212.209564 
z"/>
<path fill="#C8E4F8" opacity="1.000000" stroke="none" 
	d="
M178.422272,187.885361 
	C177.686584,191.026505 176.724106,194.461777 175.407349,197.956970 
	C176.100510,194.737762 177.147980,191.458618 178.422272,187.885361 
z"/>
<path fill="#679AD4" opacity="1.000000" stroke="none" 
	d="
M178.673019,22.254478 
	C178.965546,24.387873 178.973785,26.745026 178.964355,29.543701 
	C175.222534,27.745869 177.122650,25.088490 178.673019,22.254478 
z"/>
<path fill="#C8E4F8" opacity="1.000000" stroke="none" 
	d="
M173.055145,206.261932 
	C173.132935,206.983337 172.916946,207.873032 172.463257,208.891724 
	C172.404144,208.157227 172.582764,207.293732 173.055145,206.261932 
z"/>
<path fill="#C8E4F8" opacity="1.000000" stroke="none" 
	d="
M158.747711,159.575897 
	C159.344315,159.552338 160.113983,159.783829 160.986145,160.325577 
	C160.366013,160.367538 159.643402,160.099243 158.747711,159.575897 
z"/>
<path fill="#C8E4F8" opacity="1.000000" stroke="none" 
	d="
M148.851456,212.423676 
	C149.382217,212.304382 150.020233,212.429337 150.843842,212.836960 
	C150.339172,212.969055 149.648941,212.818481 148.851456,212.423676 
z"/>
<path fill="#C8E4F8" opacity="1.000000" stroke="none" 
	d="
M148.822083,154.489716 
	C149.431870,154.518585 150.168076,154.833160 150.983063,155.463821 
	C150.357407,155.445084 149.652969,155.110245 148.822083,154.489716 
z"/>
<path fill="#C8E4F8" opacity="1.000000" stroke="none" 
	d="
M158.081970,204.816574 
	C158.087082,204.423813 158.341171,203.896820 158.757095,203.554626 
	C158.722931,204.053711 158.526947,204.368027 158.081970,204.816574 
z"/>
<path fill="#C8E4F8" opacity="1.000000" stroke="none" 
	d="
M153.996674,157.397034 
	C154.413162,157.301346 155.027618,157.451309 155.801666,157.890991 
	C155.372375,158.001389 154.783508,157.822021 153.996674,157.397034 
z"/>
<path fill="#C8E4F8" opacity="1.000000" stroke="none" 
	d="
M163.032379,161.357666 
	C163.447403,161.254700 164.047699,161.404007 164.815674,161.827423 
	C164.394806,161.937683 163.806229,161.773804 163.032379,161.357666 
z"/>
<path fill="#C8E4F8" opacity="1.000000" stroke="none" 
	d="
M159.143753,208.630768 
	C158.975479,208.649567 158.781952,208.433853 158.734085,208.103760 
	C158.879761,207.989380 159.118500,208.396255 159.143753,208.630768 
z"/>
<path fill="#C8E4F8" opacity="1.000000" stroke="none" 
	d="
M159.912842,209.759796 
	C159.689392,209.796936 159.446884,209.578354 159.168091,209.110596 
	C159.385818,209.075607 159.639801,209.289825 159.912842,209.759796 
z"/>
<path fill="#C8E4F8" opacity="1.000000" stroke="none" 
	d="
M172.706131,199.967834 
	C172.731964,200.189789 172.490463,200.474121 171.957916,200.775894 
	C171.924179,200.538956 172.181488,200.284576 172.706131,199.967834 
z"/>
<path fill="#C8E4F8" opacity="1.000000" stroke="none" 
	d="
M173.892181,167.376190 
	C174.089767,167.312836 174.413483,167.483826 174.809433,167.931854 
	C174.593872,168.009445 174.306107,167.809998 173.892181,167.376190 
z"/>
<path fill="#C8E4F8" opacity="1.000000" stroke="none" 
	d="
M165.805069,162.463257 
	C165.990189,162.351028 166.347427,162.449966 166.839386,162.803238 
	C166.641785,162.929871 166.309494,162.802155 165.805069,162.463257 
z"/>
<path fill="#C8E4F8" opacity="1.000000" stroke="none" 
	d="
M180.285461,213.020477 
	C180.285233,212.787033 180.563202,212.532578 181.135986,212.300171 
	C181.141754,212.547974 180.852707,212.773712 180.285461,213.020477 
z"/>
<path fill="#5393D8" opacity="1.000000" stroke="none" 
	d="
M96.210022,108.238815 
	C96.831703,114.060982 97.626350,119.507118 97.673058,124.959679 
	C97.848373,145.425812 97.782013,165.894043 97.797241,186.361481 
	C97.798355,187.858124 97.823761,189.364426 97.675095,190.849945 
	C96.764343,199.950546 94.655159,201.920227 85.410149,202.168549 
	C81.450378,202.274902 77.485359,202.186325 73.043175,202.186325 
	C72.914742,200.239349 72.718842,198.644989 72.717834,197.050507 
	C72.699135,167.430878 72.785316,137.810760 72.610863,108.192146 
	C72.586098,103.986336 73.883797,102.533501 77.970673,102.883301 
	C81.276581,103.166252 84.785484,102.376076 87.901382,103.203194 
	C90.820953,103.978195 93.342751,106.251686 96.210022,108.238815 
z"/>
</svg>